<svg width="30" height="30" viewBox="0 0 30 30" fill="#CCCCCC" xmlns="http://www.w3.org/2000/svg">
<path d="M27.7295 14.7949L15.6621 2.7363C15.5752 2.64925 15.472 2.58018 15.3584 2.53305C15.2448 2.48593 15.123 2.46167 15 2.46167C14.877 2.46167 14.7552 2.48593 14.6416 2.53305C14.528 2.58018 14.4247 2.64925 14.3379 2.7363L2.27048 14.7949C1.91891 15.1465 1.7197 15.624 1.7197 16.122C1.7197 17.1562 2.56052 17.997 3.5947 17.997H4.86618V26.6015C4.86618 27.1201 5.28513 27.539 5.80368 27.539H13.125V20.9765H16.4062V27.539H24.1963C24.7148 27.539 25.1338 27.1201 25.1338 26.6015V17.997H26.4052C26.9033 17.997 27.3808 17.8008 27.7324 17.4463C28.4619 16.7138 28.4619 15.5273 27.7295 14.7949Z" fill="#27489E"/>
</svg>
