<svg width="24" height="24" viewBox="0 0 24 24" fill="none" xmlns="http://www.w3.org/2000/svg">
<path d="M2 13.25H9.5C9.83152 13.25 10.1495 13.1183 10.3839 12.8839C10.6183 12.6495 10.75 12.3315 10.75 12V2C10.75 1.66848 10.6183 1.35054 10.3839 1.11612C10.1495 0.881696 9.83152 0.75 9.5 0.75H2C1.66848 0.75 1.35054 0.881696 1.11612 1.11612C0.881696 1.35054 0.75 1.66848 0.75 2V12C0.75 12.3315 0.881696 12.6495 1.11612 12.8839C1.35054 13.1183 1.66848 13.25 2 13.25ZM0.75 22C0.75 22.3315 0.881696 22.6495 1.11612 22.8839C1.35054 23.1183 1.66848 23.25 2 23.25H9.5C9.83152 23.25 10.1495 23.1183 10.3839 22.8839C10.6183 22.6495 10.75 22.3315 10.75 22V17C10.75 16.6685 10.6183 16.3505 10.3839 16.1161C10.1495 15.8817 9.83152 15.75 9.5 15.75H2C1.66848 15.75 1.35054 15.8817 1.11612 16.1161C0.881696 16.3505 0.75 16.6685 0.75 17V22ZM13.25 22C13.25 22.3315 13.3817 22.6495 13.6161 22.8839C13.8505 23.1183 14.1685 23.25 14.5 23.25H22C22.3315 23.25 22.6495 23.1183 22.8839 22.8839C23.1183 22.6495 23.25 22.3315 23.25 22V13.25C23.25 12.9185 23.1183 12.6005 22.8839 12.3661C22.6495 12.1317 22.3315 12 22 12H14.5C14.1685 12 13.8505 12.1317 13.6161 12.3661C13.3817 12.6005 13.25 12.9185 13.25 13.25V22ZM14.5 9.5H22C22.3315 9.5 22.6495 9.3683 22.8839 9.13388C23.1183 8.89946 23.25 8.58152 23.25 8.25V2C23.25 1.66848 23.1183 1.35054 22.8839 1.11612C22.6495 0.881696 22.3315 0.75 22 0.75H14.5C14.1685 0.75 13.8505 0.881696 13.6161 1.11612C13.3817 1.35054 13.25 1.66848 13.25 2V8.25C13.25 8.58152 13.3817 8.89946 13.6161 9.13388C13.8505 9.3683 14.1685 9.5 14.5 9.5Z" fill="#808080"/>
</svg>
