<svg width="20" height="21" viewBox="0 0 20 21" fill="none" xmlns="http://www.w3.org/2000/svg">
<path d="M11.0256 4.47583C11.0256 6.7279 9.41846 8.55356 7.4359 8.55356C5.45334 8.55356 3.84615 6.7279 3.84615 4.47583C3.84615 2.22376 5.45334 0.398105 7.4359 0.398105C9.41846 0.398105 11.0256 2.22376 11.0256 4.47583Z" fill="#F8F8F8"/>
<path fill-rule="evenodd" clip-rule="evenodd" d="M6.72483e-08 4.47583C6.72483e-08 3.99324 0.344396 3.60203 0.769231 3.60203H3.84615C4.27099 3.60203 4.61539 3.99324 4.61539 4.47583C4.61539 4.95842 4.27099 5.34963 3.84615 5.34963H0.769231C0.344396 5.34963 6.72483e-08 4.95842 6.72483e-08 4.47583Z" fill="#F8F8F8"/>
<path fill-rule="evenodd" clip-rule="evenodd" d="M12.3077 4.47583C12.3077 3.99324 12.6521 3.60203 13.0769 3.60203L19.2308 3.60203C19.6556 3.60203 20 3.99324 20 4.47583C20 4.95842 19.6556 5.34963 19.2308 5.34963L13.0769 5.34963C12.6521 5.34963 12.3077 4.95842 12.3077 4.47583Z" fill="#F8F8F8"/>
<path d="M8.97436 16.709C8.97436 18.9611 10.5815 20.7867 12.5641 20.7867C14.5467 20.7867 16.1538 18.9611 16.1538 16.709C16.1538 14.4569 14.5467 12.6313 12.5641 12.6313C10.5815 12.6313 8.97436 14.4569 8.97436 16.709Z" fill="#F8F8F8"/>
<path fill-rule="evenodd" clip-rule="evenodd" d="M20 16.709C20 16.2264 19.6556 15.8352 19.2308 15.8352H16.1538C15.729 15.8352 15.3846 16.2264 15.3846 16.709C15.3846 17.1916 15.729 17.5828 16.1538 17.5828H19.2308C19.6556 17.5828 20 17.1916 20 16.709Z" fill="#F8F8F8"/>
<path fill-rule="evenodd" clip-rule="evenodd" d="M7.69231 16.709C7.69231 16.2264 7.34791 15.8352 6.92308 15.8352L0.769231 15.8352C0.344396 15.8352 3.71402e-08 16.2264 0 16.709C-3.71402e-08 17.1916 0.344396 17.5828 0.769231 17.5828L6.92308 17.5828C7.34791 17.5828 7.69231 17.1916 7.69231 16.709Z" fill="#F8F8F8"/>
</svg>
