<svg width="30" height="30" viewBox="0 0 30 30" fill="none" xmlns="http://www.w3.org/2000/svg">
<path d="M2.2194 0.997864C1.90993 0.997864 1.61314 1.1208 1.39431 1.33963C1.17549 1.55845 1.05255 1.85524 1.05255 2.16471C1.05255 2.47418 1.17549 2.77097 1.39431 2.9898C1.61314 3.20862 1.90993 3.33156 2.2194 3.33156H2.79349C3.04686 3.332 3.2932 3.41489 3.49529 3.56773C3.69738 3.72056 3.84424 3.93501 3.91366 4.17869L7.6149 17.1307C7.82424 17.8616 8.26586 18.5045 8.873 18.9622C9.48013 19.4199 10.2198 19.6674 10.9801 19.6674H21.6427C22.3425 19.6675 23.0262 19.4579 23.6057 19.0657C24.1851 18.6734 24.6337 18.1165 24.8936 17.4667L28.3334 8.86475C28.4748 8.51079 28.5274 8.12758 28.4865 7.74861C28.4456 7.36965 28.3125 7.00647 28.0989 6.69081C27.8852 6.37516 27.5975 6.11665 27.2609 5.93787C26.9242 5.75909 26.5489 5.66549 26.1678 5.66525H6.76543L6.15634 3.53692C5.94753 2.80595 5.50644 2.16281 4.89974 1.70473C4.29304 1.24665 3.5537 0.998527 2.79349 0.997864H2.2194Z" fill="#808080"/>
<path d="M11.5542 29.0022C12.0139 29.0022 12.4691 28.9116 12.8938 28.7357C13.3185 28.5598 13.7044 28.302 14.0294 27.9769C14.3545 27.6518 14.6124 27.2659 14.7883 26.8412C14.9642 26.4165 15.0547 25.9613 15.0547 25.5016C15.0547 25.0419 14.9642 24.5867 14.7883 24.162C14.6124 23.7373 14.3545 23.3514 14.0294 23.0264C13.7044 22.7013 13.3185 22.4435 12.8938 22.2676C12.4691 22.0916 12.0139 22.0011 11.5542 22.0011C10.6258 22.0011 9.73541 22.3699 9.07893 23.0264C8.42246 23.6829 8.05365 24.5732 8.05365 25.5016C8.05365 26.43 8.42246 27.3204 9.07893 27.9769C9.73541 28.6334 10.6258 29.0022 11.5542 29.0022Z" fill="#808080"/>
<path d="M20.889 29.0022C21.3487 29.0022 21.8039 28.9116 22.2286 28.7357C22.6533 28.5598 23.0392 28.302 23.3642 27.9769C23.6893 27.6518 23.9471 27.2659 24.123 26.8412C24.299 26.4165 24.3895 25.9613 24.3895 25.5016C24.3895 25.0419 24.299 24.5867 24.123 24.162C23.9471 23.7373 23.6893 23.3514 23.3642 23.0264C23.0392 22.7013 22.6533 22.4435 22.2286 22.2676C21.8039 22.0916 21.3487 22.0011 20.889 22.0011C19.9606 22.0011 19.0702 22.3699 18.4137 23.0264C17.7572 23.6829 17.3884 24.5732 17.3884 25.5016C17.3884 26.43 17.7572 27.3204 18.4137 27.9769C19.0702 28.6334 19.9606 29.0022 20.889 29.0022Z" fill="#808080"/>
</svg>
