<svg width="26" height="24" viewBox="0 0 26 24" fill="none" xmlns="http://www.w3.org/2000/svg">
<path d="M25.041 5.30855C24.6483 4.39929 24.0821 3.57532 23.374 2.88277C22.6654 2.18816 21.83 1.63616 20.9131 1.2568C19.9623 0.861853 18.9426 0.659699 17.9131 0.662069C16.4688 0.662069 15.0596 1.05758 13.835 1.80465C13.542 1.98336 13.2637 2.17965 13 2.39351C12.7363 2.17965 12.458 1.98336 12.165 1.80465C10.9404 1.05758 9.53125 0.662069 8.08691 0.662069C7.04688 0.662069 6.03906 0.861288 5.08691 1.2568C4.16699 1.63766 3.33789 2.18551 2.62598 2.88277C1.91698 3.57454 1.35062 4.3987 0.958984 5.30855C0.551758 6.25484 0.34375 7.25973 0.34375 8.29391C0.34375 9.26949 0.542969 10.2861 0.938477 11.3203C1.26953 12.1845 1.74414 13.081 2.35059 13.9863C3.31152 15.4189 4.63281 16.913 6.27344 18.4277C8.99219 20.9384 11.6846 22.6728 11.7988 22.7431L12.4932 23.1884C12.8008 23.3847 13.1963 23.3847 13.5039 23.1884L14.1982 22.7431C14.3125 22.6699 17.002 20.9384 19.7236 18.4277C21.3643 16.913 22.6855 15.4189 23.6465 13.9863C24.2529 13.081 24.7305 12.1845 25.0586 11.3203C25.4541 10.2861 25.6533 9.26949 25.6533 8.29391C25.6562 7.25973 25.4482 6.25484 25.041 5.30855ZM13 20.8711C13 20.8711 2.57031 14.1884 2.57031 8.29391C2.57031 5.30855 5.04004 2.88863 8.08691 2.88863C10.2285 2.88863 12.0859 4.08394 13 5.83004C13.9141 4.08394 15.7715 2.88863 17.9131 2.88863C20.96 2.88863 23.4297 5.30855 23.4297 8.29391C23.4297 14.1884 13 20.8711 13 20.8711Z" fill="#808080"/>
<path d="M13 20.8711C13 20.8711 2.57031 14.1884 2.57031 8.29391C2.57031 5.30855 5.04004 2.88863 8.08691 2.88863C10.2285 2.88863 12.0859 4.08394 13 5.83004C13.9141 4.08394 15.7715 2.88863 17.9131 2.88863C20.96 2.88863 23.4297 5.30855 23.4297 8.29391C23.4297 14.1884 13 20.8711 13 20.8711Z" fill="#808080"/>
</svg>
