<svg width="30" height="35" viewBox="0 0 30 35" fill="none" xmlns="http://www.w3.org/2000/svg">
<path d="M10.5613 1.25621C9.33686 0.912966 7.80625 0.569723 6.58176 0.569723C5.35727 0.569723 3.82665 0.912966 2.60216 1.25621C1.53073 1.42783 0.765428 2.45756 0.612367 3.65891C0.459306 5.03188 0.00012207 7.77782 0.00012207 9.66566C0.00012207 11.5535 0.306244 13.9562 0.459306 15.6724C0.612367 16.8738 1.37767 17.9035 2.4491 18.0751C3.52053 18.4184 5.2042 18.59 6.42869 18.59C7.65318 18.59 9.1838 18.2467 10.4083 18.0751C11.4797 17.9035 12.245 16.8738 12.3981 15.6724C12.7042 13.9562 12.8573 11.5535 12.8573 9.66566C12.8573 7.77782 12.5511 5.03188 12.3981 3.65891C12.3981 2.45756 11.6328 1.42783 10.5613 1.25621Z" fill="#1E1E1E"/>
<path d="M27.3981 16.7019C26.3267 16.3586 24.643 16.187 23.4185 16.187C22.194 16.187 20.6634 16.5303 19.4389 16.7019C18.3675 16.8735 17.6022 17.9032 17.4491 19.1046C17.143 20.8208 16.9899 23.2235 16.9899 25.1113C16.9899 26.9992 17.2961 29.4019 17.4491 31.1181C17.6022 32.3194 18.3675 33.3492 19.4389 33.5208C20.5103 33.864 22.194 34.0357 23.4185 34.0357C24.643 34.0357 26.1736 33.6924 27.3981 33.5208C28.4695 33.3492 29.2348 32.3194 29.3879 31.1181C29.694 29.4019 29.8471 26.9992 29.8471 25.1113C29.8471 23.2235 29.694 20.8208 29.3879 19.1046C29.2348 17.9032 28.4695 16.8735 27.3981 16.7019Z" fill="#1E1E1E"/>
<path d="M10.7144 23.5667C9.48992 23.2235 7.95931 23.0519 6.58176 23.0519C5.2042 23.0519 3.67359 23.3951 2.4491 23.5667C1.53073 23.7384 0.765428 24.5965 0.459306 25.6262C0.153183 26.8275 0.00012207 27.8573 0.00012207 28.7154C0.00012207 29.5735 0.153183 30.4316 0.459306 31.8046C0.765428 32.8343 1.53073 33.5208 2.4491 33.864C3.67359 34.2073 5.2042 34.3789 6.58176 34.3789C7.95931 34.3789 9.48992 34.0357 10.7144 33.864C11.6328 33.6924 12.3981 32.8343 12.7042 31.8046C13.0103 30.6032 13.1634 29.5735 13.1634 28.7154C13.1634 27.8573 13.0103 26.9992 12.7042 25.6262C12.3981 24.4248 11.6328 23.7384 10.7144 23.5667Z" fill="#1E1E1E"/>
<path d="M19.2858 11.2101C20.5103 11.5533 22.0409 11.7249 23.4185 11.7249C24.796 11.7249 26.3267 11.3817 27.5511 11.2101C28.4695 11.0385 29.2348 10.1804 29.5409 9.15063C29.8471 7.94928 30.0001 6.91955 30.0001 6.06144C30.0001 5.20333 29.8471 4.34523 29.5409 2.97226C29.2348 1.94253 28.4695 1.25604 27.5511 0.912799C26.3267 0.569556 24.796 0.397934 23.4185 0.397934C22.0409 0.397934 20.5103 0.741177 19.2858 0.912799C18.3675 1.08442 17.6022 1.94253 17.296 2.97226C16.9899 4.17361 16.8369 5.20333 16.8369 6.06144C16.8369 6.91955 16.9899 7.77766 17.296 9.15063C17.6022 10.352 18.3675 11.0385 19.2858 11.2101Z" fill="#1E1E1E"/>
</svg>
