<svg width="260" height="184" viewBox="0 0 260 184" fill="none" xmlns="http://www.w3.org/2000/svg">
<path fill-rule="evenodd" clip-rule="evenodd" d="M120.135 16.7999C141.203 18.8179 164.075 6.36441 182.204 15.118C200.488 23.9467 198.465 45.2954 209.395 59.899C225.091 80.871 261.927 94.6192 259.921 118.959C257.956 142.808 227.912 160.949 200.284 170.46C175.124 179.122 147.51 165.765 120.135 167.085C89.8707 168.544 55.8404 193.984 32.5839 178.546C8.75719 162.729 34.9801 130.624 28.8126 106.463C23.7712 86.7137 -3.03223 71.9885 0.283019 52.0107C3.75609 31.0819 21.1883 9.41318 46.1338 2.08454C70.58 -5.09742 94.2552 14.321 120.135 16.7999Z" fill="#27489E"/>
</svg>
